<svg width="45" height="45" viewBox="0 0 45 45" fill="none" xmlns="http://www.w3.org/2000/svg">
<path d="M22.5 45C34.9264 45 45 34.9264 45 22.5C45 10.0736 34.9264 0 22.5 0C10.0736 0 0 10.0736 0 22.5C0 34.9264 10.0736 45 22.5 45Z" fill="#C1C7BB"/>
<path d="M26.5715 18.6295L25.8821 30.0132M12.767 15.002H32.2329H12.767ZM30.7431 15.002L29.0735 33.1702H16.0986L14.429 15.002H30.7431ZM18.6006 15.002L19.7845 11.8298H25.3876L26.5715 15.002H18.6006ZM22.586 18.5921V29.9757V18.5921ZM18.6005 18.6295L19.2899 30.0132L18.6005 18.6295Z" stroke="white" stroke-width="1.6875" stroke-miterlimit="10" stroke-linecap="round" stroke-linejoin="round"/>
</svg>
