<svg width="43" height="43" viewBox="0 0 43 43" fill="none" xmlns="http://www.w3.org/2000/svg">
<g clip-path="url(#clip0_571_22)">
<path d="M21.5 42.9961C33.3741 42.9961 43 33.3711 43 21.498C43 9.62499 33.3741 0 21.5 0C9.62586 0 0 9.62499 0 21.498C0 33.3711 9.62586 42.9961 21.5 42.9961Z" fill="#C1C7BB"/>
<path d="M26.8504 12.8795L27.831 11.8994C27.831 11.8994 28.0272 11.7028 28.6645 12.3405L30.4945 14.1695C31.1645 14.8399 30.9684 15.0366 30.9684 15.0366L29.9882 16.0166M27.36 18.9088L15.9456 30.3218L12.0049 31.1254L12.8082 27.1851L24.2075 15.7868L27.36 18.9088Z" stroke="white" stroke-width="1.61235" stroke-miterlimit="10" stroke-linecap="round" stroke-linejoin="round"/>
</g>
<defs>
<clipPath id="clip0_571_22">
<rect width="43" height="42.9961" fill="white"/>
</clipPath>
</defs>
</svg>
