<svg width="46" height="46" viewBox="0 0 46 46" fill="none" xmlns="http://www.w3.org/2000/svg">
<path d="M23 46C35.7025 46 46 35.7025 46 23C46 10.2974 35.7025 0 23 0C10.2974 0 0 10.2974 0 23C0 35.7025 10.2974 46 23 46Z" fill="#DEF6FC"/>
<path d="M28.7238 13.7792L29.7727 12.7306C29.7727 12.7306 29.9826 12.5203 30.6644 13.2026L32.6221 15.1594C33.3389 15.8766 33.129 16.087 33.129 16.087L32.0805 17.1354M29.2689 20.2297L17.0582 32.4401L12.8426 33.2998L13.7018 29.0842L25.8965 16.8896L29.2689 20.2297Z" stroke="#0C6CDE" stroke-width="1.59722" stroke-miterlimit="10" stroke-linecap="round" stroke-linejoin="round"/>
</svg>
