<svg width="45" height="45" viewBox="0 0 45 45" fill="none" xmlns="http://www.w3.org/2000/svg">
<circle cx="22.5" cy="22.5" r="22.5" fill="#C1C7BB"/>
<path d="M12.7004 18.1448C12.3741 18.1448 12.084 18.2825 11.8423 18.4952C11.6055 18.7152 11.504 19.039 11.4895 19.3508C11.475 19.653 11.6321 19.9962 11.8423 20.2065C12.0623 20.424 12.3886 20.5593 12.6979 20.5593C12.7076 20.5593 12.7149 20.5593 12.7245 20.5593C13.3215 20.5666 13.9209 20.5593 14.5179 20.5593C15.7434 20.5593 16.9664 20.5593 18.1918 20.5593C19.5912 20.5593 20.9907 20.5593 22.3901 20.5593C23.5116 20.5593 24.6331 20.5593 25.7545 20.5593C26.3902 20.5593 27.0476 20.5255 27.6785 20.6077C27.5721 20.5932 27.4634 20.5787 27.357 20.5642C27.8283 20.6294 28.2851 20.7551 28.7226 20.9388C28.6283 20.9001 28.5317 20.859 28.435 20.818C28.8604 21.0016 29.2616 21.2385 29.629 21.5213C29.5468 21.4585 29.467 21.3956 29.3849 21.3328C29.7377 21.6083 30.0544 21.9274 30.3323 22.2802C30.2695 22.1981 30.2066 22.1183 30.1438 22.0361C30.429 22.4035 30.6635 22.8023 30.8471 23.2301C30.8085 23.1358 30.7674 23.0392 30.7263 22.9425C30.91 23.38 31.0357 23.8392 31.1009 24.3081C31.0864 24.2017 31.0719 24.093 31.0574 23.9866C31.1178 24.4579 31.1178 24.9317 31.0574 25.403C31.0719 25.2966 31.0864 25.1879 31.1009 25.0815C31.0381 25.548 30.9148 26.0024 30.7335 26.435C30.7722 26.3408 30.8133 26.2441 30.8544 26.1474C30.6755 26.5704 30.4435 26.9692 30.1631 27.3342C30.226 27.252 30.2888 27.1722 30.3517 27.09C30.064 27.4598 29.7329 27.791 29.3631 28.0786C29.4453 28.0158 29.5251 27.9529 29.6072 27.8901C29.2423 28.168 28.8435 28.4025 28.4205 28.5813C28.5147 28.5427 28.6114 28.5016 28.7081 28.4605C28.2755 28.6418 27.8211 28.765 27.3546 28.8279C27.4609 28.8134 27.5697 28.7989 27.6761 28.7844C27.2313 28.8424 26.7818 28.8303 26.3346 28.8303C25.0174 28.8303 23.7025 28.8303 22.3877 28.8303C21.5055 28.8303 20.6233 28.8303 19.7411 28.8303C19.4124 28.8303 19.1223 28.9656 18.8854 29.1832C18.6486 29.4031 18.5471 29.727 18.5326 30.0388C18.5181 30.3409 18.6752 30.6841 18.8854 30.8944C19.1054 31.1119 19.4317 31.2473 19.7411 31.2473C19.8039 31.2473 19.8643 31.2473 19.9272 31.2473C21.0414 31.2473 22.1556 31.2473 23.2699 31.2473C24.4204 31.2473 25.5733 31.2473 26.7238 31.2473C27.3473 31.2473 27.9709 31.1989 28.5776 31.0467C29.6797 30.7687 30.7094 30.179 31.5263 29.391C33.2666 27.7112 33.9626 25.0767 33.2255 22.7636C33.0297 22.1521 32.7542 21.5527 32.3844 21.0282C32.1692 20.7189 31.9348 20.4191 31.6738 20.1484C31.42 19.885 31.1372 19.6578 30.8471 19.4354C29.7982 18.6306 28.4833 18.1979 27.1685 18.1496C26.6295 18.1278 26.0881 18.1448 25.5491 18.1448C24.3744 18.1448 23.1998 18.1448 22.0251 18.1448C20.6112 18.1448 19.1972 18.1448 17.7833 18.1448C16.5893 18.1448 15.3977 18.1448 14.2037 18.1448C13.7034 18.1448 13.2007 18.1448 12.7004 18.1448Z" fill="white"/>
<path d="M17.9301 15.8171C18.1622 15.5875 18.2685 15.2829 18.283 14.9663C18.2975 14.6424 18.1404 14.3403 17.9301 14.1107C17.7247 13.8883 17.3718 13.7578 17.0745 13.7578C16.7627 13.7578 16.4389 13.8907 16.2189 14.1107C16.0376 14.292 15.8564 14.4732 15.6751 14.6545C14.8896 15.44 14.1065 16.2256 13.3209 17.0111C12.8255 17.5066 12.3276 18.0045 11.8321 18.5C11.3704 18.9616 11.3704 19.7471 11.8321 20.2088C12.0133 20.39 12.1922 20.5689 12.3735 20.7502C13.1614 21.5381 13.9518 22.3261 14.7397 23.114C15.2328 23.6071 15.7258 24.0977 16.2189 24.5908C16.4509 24.8204 16.7531 24.9291 17.0745 24.9437C17.3984 24.9582 17.7005 24.801 17.9301 24.5908C18.1525 24.3853 18.283 24.0324 18.283 23.7352C18.283 23.4234 18.1501 23.0995 17.9301 22.8795C17.7489 22.6983 17.57 22.5194 17.3887 22.3381C16.6008 21.5502 15.8104 20.7623 15.0225 19.9743C14.5294 19.4812 14.0364 18.9906 13.5433 18.4975C13.5433 19.0679 13.5433 19.6359 13.5433 20.2063C13.7246 20.0251 13.9059 19.8438 14.0871 19.6625C14.8727 18.877 15.6558 18.0915 16.4413 17.306C16.9368 16.8105 17.4347 16.3126 17.9301 15.8171Z" fill="white"/>
</svg>
