<svg width="478" height="248" viewBox="0 0 478 248" fill="none" xmlns="http://www.w3.org/2000/svg">
<path d="M3.68833 189.344C2.5467 189.439 1.75635 189.63 0 190.583C0.0585449 190.679 0.245888 190.927 0.526904 191.156C0.878173 191.442 3.51269 190.87 4.47868 190.87C5.44467 190.87 8.34264 189.344 8.86955 188.772C9.39645 188.2 10.8015 186.96 11.5041 186.579C12.2066 186.197 14.6655 186.579 15.7193 186.579C17.7391 186.769 19.3198 185.816 19.9345 185.435C20.5492 185.053 23.4472 182.955 25.8183 181.335C28.1894 179.714 28.8041 179.618 30.1213 179.523C31.1751 179.447 33.312 179.682 34.2487 179.809L33.4584 176.662C31.7606 176.853 28.084 177.349 26.9599 177.807C25.5548 178.379 24.0619 179.714 23.0959 180.476C22.13 181.239 19.7589 183.242 18.4416 184.004C17.1244 184.767 15.368 184.004 12.9091 184.29C10.4503 184.576 9.57209 185.911 7.90356 187.532C6.23503 189.153 4.82995 189.249 3.68833 189.344Z" fill="#FFFFF6"/>
<path d="M12.9968 199.642C11.3283 199.928 10.0989 200.786 8.60596 201.835C8.60596 202.153 8.90454 202.712 10.0989 202.407C11.5917 202.025 12.3821 201.167 13.3481 200.881C16.0704 200.5 18.2659 198.688 18.7928 198.116C19.3197 197.544 23.3593 193.158 24.6765 191.823C25.9938 190.488 27.9258 189.249 28.9796 188.772C30.0334 188.295 32.5801 187.437 34.5121 187.342C36.0576 187.265 37.2051 187.055 37.5857 186.96L36.444 184.767C36.005 184.831 34.8106 185.015 33.5461 185.244C31.9654 185.53 29.5943 186.388 27.9258 186.96C26.2572 187.532 24.4131 189.153 23.0958 190.583C21.7786 192.014 19.5831 195.16 17.739 197.067C15.8948 198.974 14.6654 199.356 12.9968 199.642Z" fill="#FFFFF6"/>
<path d="M18.7928 210.321C18.2659 211.942 17.739 212.037 16.8608 212.323C16.1583 212.768 14.8937 213.677 15.4557 213.754C16.1583 213.849 16.8608 213.658 17.739 213.372C18.6172 213.086 19.7588 211.942 20.4613 210.988C21.1639 210.035 20.9004 208.223 22.3933 206.126C23.5876 204.447 25.8767 203.71 26.872 203.551C29.1552 203.36 30.9994 202.407 33.7217 201.358C36.4441 200.309 37.4101 198.784 38.2882 197.735C38.9908 196.896 41.6838 194.906 42.9425 194.016L40.3958 192.967C39.9568 193.571 38.6571 195.122 36.971 196.495C34.8634 198.212 30.6481 200.119 26.872 201.358C23.0958 202.598 22.3933 203.36 20.9004 204.981C19.4075 206.602 19.3197 208.7 18.7928 210.321Z" fill="#FFFFF6"/>
<path d="M187.226 171.132C185.558 171.228 184.767 171.609 183.187 171.514L182.484 171.132L182.66 168.748C183.626 168.494 185.856 167.928 187.051 167.7C188.544 167.414 191.002 167.509 193.461 167.7C195.92 167.89 198.643 170.083 199.696 171.132C202.067 173.23 206.985 174.565 208.478 174.946C209.971 175.328 211.639 176.09 213.396 176.662C215.152 177.235 212.957 177.902 211.639 177.807C210.322 177.711 206.634 176.472 204.263 176.09C201.892 175.709 199.257 173.611 198.379 173.23C197.501 172.848 194.427 170.846 192.847 170.846C191.266 170.846 188.895 171.037 187.226 171.132Z" fill="#FBF5E9"/>
<path d="M181.869 178.665L182.133 175.9C183.538 176.567 186.576 177.94 187.49 178.093C188.631 178.283 192.847 178.093 194.252 178.093H199.257C200.135 178.093 200.487 178.474 201.101 179.142C201.716 179.809 204.878 182.288 205.58 182.67C206.283 183.051 208.654 184.1 210.937 184.958C213.22 185.816 211.025 186.388 210.41 186.293C209.795 186.197 208.566 185.625 205.58 184.958C202.594 184.29 200.487 181.43 199.257 180.572C198.028 179.714 196.271 180.19 194.515 180.381C191.266 180.763 189.949 180.858 187.314 180.381C185.206 180 182.806 179.078 181.869 178.665Z" fill="#FBF5E9"/>
<path d="M185.207 186.769C183.942 186.388 182.279 185.085 181.606 184.481L181.43 187.246C182.045 187.723 183.538 188.791 184.592 189.248C185.909 189.821 188.28 190.202 189.773 190.297C191.266 190.393 194.076 189.439 194.866 189.248C195.657 189.058 196.974 189.439 197.94 189.916C198.906 190.393 201.101 192.109 202.243 192.872C203.385 193.635 205.756 195.446 208.566 195.637C211.376 195.828 209.093 194.493 208.215 194.111C207.337 193.73 205.756 192.776 204.702 192.109C203.648 191.442 200.399 188.772 198.818 187.723C197.238 186.674 195.745 187.151 195.042 187.246C194.34 187.341 192.32 187.723 189.773 187.723C187.226 187.723 186.787 187.246 185.207 186.769Z" fill="#FFFEF2"/>
<path d="M170.717 124.316L123.208 108.774C123.208 107.884 123.278 105.532 123.559 103.243C123.91 100.383 129.706 93.4222 131.726 90.371C133.746 87.3198 143.933 75.8778 145.777 73.8754C147.621 71.8731 152.978 65.3893 156.051 62.1474C158.51 59.5538 160.706 61.9567 161.496 63.4823C162.199 65.0714 164.254 69.5847 166.853 74.9243C170.102 81.5988 171.946 91.3245 173.351 96.8548C174.757 102.385 174.581 108.774 174.317 111.348C174.107 113.408 171.829 120.851 170.717 124.316Z" fill="#43312F" stroke="#21120B" stroke-width="0.95517"/>
<path d="M131.111 104.197C130.76 106.333 130.965 107.757 131.111 108.202L148.148 111.729C149.904 100.891 153.188 78.8337 152.275 77.3081C151.134 75.4011 149.904 77.7848 148.148 79.2151C146.391 80.6453 140.42 87.9873 137.083 92.4687C133.746 96.9502 131.55 101.527 131.111 104.197Z" fill="#342123"/>
<path d="M141.825 111.539L151.661 113.827L170.541 116.688C170.981 114.558 171.894 109.441 172.034 106.008C172.21 101.718 170.717 95.4246 169.488 89.8943C168.258 84.364 164.306 74.829 162.989 72.0639C161.672 69.2987 159.301 70.3476 158.247 71.2057C157.193 72.0639 154.471 76.3546 152.1 79.8826C149.729 83.4105 144.899 93.7083 143.406 97.9037C142.212 101.26 141.854 108.392 141.825 111.539Z" fill="#7D574C"/>
<path d="M145.074 100.574C144.108 103.816 143.493 110.109 143.493 110.586C143.142 110.172 142.352 109.079 142.001 108.011C141.562 106.676 142.176 103.434 142.44 101.432C142.703 99.4296 143.933 95.997 145.338 92.7551C146.743 89.5132 150.958 81.5992 152.451 78.6433C153.645 76.2786 154.002 77.658 154.032 78.6433C153.944 79.5968 153.715 81.6182 153.505 82.0759C153.241 82.648 152.012 84.0783 150.431 86.7481C148.85 89.4179 146.04 97.3319 145.074 100.574Z" fill="#62362B"/>
<path d="M155.349 79.4059C154.014 79.177 153.036 80.0733 152.714 80.5501L141.386 108.202L149.641 108.774C152.744 107.471 159.424 104.807 161.321 104.578C163.692 104.292 163.955 103.243 163.34 101.718C162.726 100.192 163.34 95.4247 163.34 93.8991C163.34 92.3735 160.618 88.4641 160.267 86.8432C159.915 85.2222 160.179 82.3617 159.652 81.5989C159.125 80.8361 157.017 79.6919 155.349 79.4059Z" fill="#714B40"/>
<path d="M79.0358 107.82C83.9535 110.261 91.2716 109.537 94.316 108.869L38.991 137.665C34.8344 130.673 26.0468 115.868 24.1499 112.588C21.7789 108.488 18.8809 102.767 15.3682 94.8528C11.8555 86.9387 17.7393 88.4643 18.8809 88.4643C20.0225 88.4643 28.1895 90.7527 32.4048 91.8016C36.62 92.8504 47.9484 95.9016 57.1692 98.4761C66.3901 101.051 72.8885 104.769 79.0358 107.82Z" fill="#3F302D" stroke="#160E0B" stroke-width="0.159195"/>
<path d="M66.3899 108.487L71.3955 116.02L65.4239 123.076L32.8437 110.108C29.1553 106.549 21.3747 98.8952 19.7589 96.7593C18.1431 94.6235 21.0762 93.7717 22.7447 93.6128C24.8523 94.1213 29.9808 95.4626 33.634 96.7593C38.2005 98.3803 50.8462 102.48 58.662 104.578C64.9145 106.256 66.4192 107.884 66.3899 108.487Z" fill="#322222"/>
<path d="M47.5969 108.774C48.3697 109.155 58.574 112.175 63.5796 113.637L37.8492 135.758C33.5461 128.384 24.6063 113.122 23.2715 111.062C21.603 108.488 21.3395 104.865 21.0761 101.909C20.8126 98.9528 23.008 99.6203 24.94 99.9063C26.872 100.192 31.3507 101.432 34.3365 102.671C37.3223 103.911 46.6309 108.297 47.5969 108.774Z" fill="#7C534D"/>
<path d="M50.7586 111.634L57.257 113.446C55.2665 112.333 51.0571 110.051 50.1438 109.822C49.0022 109.536 42.0646 106.39 39.6058 105.055C37.6387 103.987 32.6389 102.067 30.3849 101.241L25.8184 100.001C25.6428 100.001 25.3969 100.135 25.8184 100.669C26.3453 101.336 33.1073 104.197 37.0591 105.913C40.2205 107.286 47.5093 110.299 50.7586 111.634Z" fill="#5E362E"/>
<path d="M38.2005 120.978C40.3784 121.207 43.1476 120.438 44.2599 120.025L53.3051 115.353C50.934 113.891 46.0514 110.89 45.4894 110.585C44.7868 110.204 42.1523 108.964 37.1467 106.867C32.1411 104.769 32.9315 105.341 31.8777 105.15C30.8239 104.96 29.5066 104.483 28.7163 106.485C27.9259 108.488 28.4528 110.681 28.7163 112.683C28.9766 114.662 30.7812 116.827 32.4342 118.811L32.4924 118.881C34.1609 120.883 35.4782 120.692 38.2005 120.978Z" fill="#724C41"/>
<path d="M75.6161 108.598C67.5369 111.573 59.1943 111.363 56.0328 110.886C55.8865 110.95 55.5235 111.058 55.2425 110.982C54.8912 110.886 54.6278 110.41 54.013 110.124C53.3983 109.838 52.2567 109.361 50.5882 109.456C49.2533 109.533 49.7393 110.696 50.1491 111.268C50.4711 111.554 51.3434 112.355 52.2567 113.27C53.17 114.186 52.4031 114.224 51.9054 114.128C51.6127 114.065 50.9921 113.919 50.8516 113.842C50.676 113.747 49.7978 113.27 49.0075 112.984C48.2171 112.698 46.9877 112.412 45.6704 112.984C44.6166 113.442 45.2313 114.192 45.6704 114.51C45.8168 114.573 46.4432 114.948 47.778 115.94C49.1128 116.932 47.8073 117.18 46.9877 117.18C46.5778 117.148 45.5474 117.065 44.7044 116.989C43.6506 116.894 42.1577 116.989 40.8404 117.466C39.5232 117.942 40.2257 119.087 40.8404 119.087C41.4552 119.087 42.3333 119.659 42.8602 120.231C43.2818 120.688 43.0359 121.184 42.8602 121.375L41.543 122.328C40.8697 122.773 39.3124 123.835 38.4694 124.522C37.6263 125.208 37.357 126.333 37.3277 126.81C37.357 127.223 37.398 128.507 37.3277 130.338C37.2575 132.169 36.8887 133.008 36.713 133.198C35.4836 137.044 32.9193 145.67 32.4978 149.408C31.9709 154.08 32.0587 165.331 32.0587 169.241C32.0587 173.15 32.4978 178.299 33.1125 180.492C33.7272 182.685 36.0105 187.071 36.5374 187.929C37.0643 188.787 41.2795 194.604 42.509 195.748C43.4925 196.663 45.202 198.036 45.9338 198.609C46.0802 198.736 46.3729 199.6 46.3729 202.041C46.3729 205.092 46.8998 213.578 47.8658 222.827C48.6386 230.227 49.1831 242.692 49.3587 248H54.4466C97.2137 248 177.303 247.031 187.841 247.031C183.538 242.836 179.416 223.876 177.923 216.82C176.43 209.764 175.728 195.081 176.255 194.699C176.782 194.318 178.187 192.792 178.45 191.839C178.714 190.885 178.977 188.787 179.065 188.12C179.135 187.586 179.328 187.898 179.416 188.12C179.504 188.47 179.732 189.321 179.943 189.932C180.646 190.847 181.231 190.313 181.436 189.932C181.641 189.423 182.209 186.785 182.841 180.301C183.631 172.197 183.017 161.041 182.051 150.934C181.085 140.826 179.24 132.531 177.923 126.238C176.606 119.945 174.059 117.18 171.6 114.987C169.163 112.812 166.466 112.325 165.906 112.224L165.892 112.221C165.365 112.126 164.399 112.031 162.906 111.649C161.712 111.344 161.999 110.886 162.292 110.696C162.614 110.569 163.363 110.219 163.785 109.838C164.698 108.922 163.814 108.566 163.258 108.503C162.672 108.503 161.133 108.56 159.657 108.789C157.813 109.075 156.935 108.979 154.564 109.17C152.667 109.323 153.773 108.789 154.564 108.503C155.53 107.962 157.743 106.748 158.867 106.214C159.991 105.68 159.745 105.102 159.482 104.879C159.013 104.784 157.585 104.651 155.618 104.879C153.159 105.165 150.524 106.214 148.329 106.882C146.572 107.416 147.129 106.659 147.626 106.214C148.27 105.738 149.945 104.345 151.49 102.591C153.036 100.837 151.49 101.161 150.524 101.542C149.353 102.051 145.852 103.697 141.216 106.214C136.579 108.732 133.078 107.263 131.907 106.214H111.972C105.65 106.214 85.7151 104.879 75.6161 108.598Z" fill="#E2D5C5"/>
<path d="M112.055 122.885H109.508C110.064 123.489 111.282 124.888 111.704 125.651C112.231 126.604 110.913 136.902 110.913 139.667C110.913 142.432 111.089 149.679 111.177 152.539C111.247 154.828 111.557 157.052 111.704 157.879C112.143 159.468 113.074 162.799 113.284 163.409C113.548 164.172 117.412 175.709 117.763 176.854C118.044 177.769 121.627 182.13 123.383 184.195C124.379 185.562 126.668 188.791 127.862 190.775C129.355 193.254 129.004 195.161 129.004 197.449C129.004 199.738 129.004 201.072 127.335 202.598C126.492 204.2 128.096 204.155 129.004 203.933C130.438 203.615 133.447 202.751 134.009 201.835C134.712 200.691 136.293 198.498 138.312 197.735C140.332 196.972 141.825 197.068 145.074 195.161C148.324 193.254 152.978 193.73 157.017 193.73C161.057 193.73 167.292 193.254 172.122 192.968C175.624 192.76 177.653 188.769 179.235 187.819C179.835 187.459 181.198 189.788 181.343 189.63C181.87 189.058 182.836 171.895 182.836 169.416C182.836 166.937 182.309 156.449 182.045 152.539C181.782 148.63 180.552 145.579 180.113 144.911C179.147 144.816 177.742 142.718 176.952 140.144C176.162 137.569 172.561 133.183 171.332 132.039C170.102 130.895 166.414 127.844 161.935 126.127C157.457 124.411 150.08 124.316 145.601 124.316C141.123 124.316 137.61 125.078 133.57 126.985C130.339 128.511 128.887 127.621 128.565 126.985L125.755 124.316C124.349 122.981 122.769 121.264 120.31 119.643C118.343 118.347 116.739 119.103 116.182 119.643C115.802 119.961 114.812 120.883 113.899 122.027C112.986 123.171 112.289 123.076 112.055 122.885Z" fill="#917D74"/>
<path d="M96.7746 128.797C94.3157 134.9 93.8767 135.949 84.1289 146.819C78.8306 155.813 67.8652 175.176 66.3898 180.668C64.5457 187.533 64.6335 195.447 64.6335 197.068C64.6335 198.689 65.2482 199.547 66.3898 200.691C67.5314 201.835 67.8827 201.263 68.234 200.882L69.3756 199.642C70.3416 198.594 70.6051 200.405 70.7807 201.073C70.9563 201.74 71.571 202.98 71.9223 203.838C72.2736 204.696 74.469 207.08 75.6106 207.652C76.7523 208.224 77.8939 207.175 80.0015 206.889C82.1091 206.603 82.5482 208.033 83.0751 208.415C83.602 208.796 82.8117 208.319 85.1827 209.654C87.5538 210.989 87.0269 210.608 89.7492 211.466C92.4716 212.324 91.8568 214.326 91.5934 214.708C91.3299 215.089 91.0665 215.375 90.1883 216.805C89.3101 218.236 87.9929 220.81 86.2365 223.957C84.4802 227.103 81.9335 232.634 80.7919 235.208C79.6502 237.782 79.2112 241.978 79.0355 243.694C78.895 245.067 79.5624 247.89 79.5624 247.89L137.61 247.317C137.727 245.983 137.557 244.037 137.697 242.741C137.873 241.12 136.556 239.213 135.678 236.638C134.8 234.064 134.448 231.394 134.185 229.201C133.921 227.008 132.341 223.48 131.989 222.336C131.638 221.192 129.004 218.331 128.213 216.805C127.423 215.28 128.652 214.422 129.706 213.564C130.76 212.705 135.59 208.796 136.556 208.129C138.576 206.794 139.278 208.605 140.156 209.463C141.561 210.798 142.703 209.559 143.318 208.796C143.933 208.033 144.811 206.984 145.513 206.222C146.216 205.459 147.357 204.029 147.884 202.026C148.411 200.024 149.992 200.405 150.343 200.405C150.694 200.405 151.485 200.501 152.978 200.691C154.471 200.882 154.91 200.119 154.734 198.498C154.558 196.877 154.646 196.877 155.085 196.019C155.524 195.161 156.754 192.682 156.227 191.442L156.221 191.429C155.693 190.187 154.759 187.988 137.61 182.098C120.397 176.186 114.338 136.235 114.514 134.137C114.689 132.039 113.548 123.362 113.109 121.837C112.67 120.311 111.616 119.739 109.596 118.881C107.576 118.023 103.273 118.214 100.726 118.881C98.1797 119.548 99.2335 122.695 96.7746 128.797Z" fill="#C9B1A5"/>
<path d="M114.953 122.695L113.372 124.697C112.64 126.604 111.054 131.524 110.562 134.423C109.947 138.046 110.826 152.063 111.177 155.972C111.528 159.882 114.426 165.126 114.865 166.175C115.304 167.223 117.939 176.377 118.378 177.14C118.817 177.903 124.086 185.149 126.808 188.2C129.531 191.252 129.092 194.112 129.267 195.542C129.443 196.973 129.443 199.356 127.862 202.217C127.072 205.173 128.389 204.124 129.443 204.315C130.497 204.505 131.55 203.266 134.185 201.549C135.853 198.308 139.63 197.163 141.562 196.687C143.494 196.21 144.811 194.494 149.816 193.349C154.822 192.205 171.156 193.349 172.298 193.349C173.439 193.349 173.527 195.066 175.02 195.256C176.513 195.447 177.303 194.112 178.181 192.968C179.06 191.824 178.884 190.203 179.06 188.582C179.2 187.285 179.352 187.787 179.411 188.2C179.469 188.359 179.639 188.887 179.85 189.726C180.623 190.947 181.226 190.235 181.431 189.726C181.46 189.599 181.589 188.944 181.87 187.342C182.221 185.34 182.748 172.849 182.66 172.277C182.572 171.705 182.572 171.324 180.904 171.324C179.569 171.324 178.708 171.514 178.445 171.61C177.567 172.182 175.635 171.991 174.23 171.324C172.941 170.711 173.351 170.465 173.791 170.084C174.171 169.703 175.002 168.806 175.283 168.272C175.635 167.605 176.249 164.172 176.425 161.312C176.601 158.451 176.074 155.114 175.635 153.302C175.196 151.491 173.264 151.586 171.771 151.491C170.278 151.395 170.19 150.442 169.312 149.298C167.643 148.44 167.907 151.014 168.785 153.016C169.487 154.618 169.078 156.608 168.785 157.402H167.907C167.79 157.911 167.415 158.833 166.853 158.451C166.15 157.975 161.847 157.402 159.564 157.402C157.281 157.402 152.89 157.593 151.485 157.402C150.08 157.212 145.777 154.637 144.02 153.684C142.264 152.73 135.502 149.107 134.887 148.535C134.273 147.963 131.287 142.623 129.443 140.812C127.599 139 125.842 141.098 125.754 143.672C125.684 145.732 126.194 152.73 126.457 155.972C126.047 156.036 125.087 156.125 124.525 155.972C123.822 155.781 122.505 153.779 121.978 153.016C121.451 152.254 120.749 149.202 119.08 143.672C117.412 138.142 116.973 128.416 116.973 124.697C116.973 121.722 115.626 122.123 114.953 122.695Z" fill="#72564B"/>
<path d="M40.7472 139C38.6396 140.373 35.4782 141.542 34.1609 141.956C33.8389 142.687 33.0017 145.064 32.2289 148.725C31.263 153.302 31.5264 160.167 31.4386 165.698C31.3508 171.228 32.3168 181.049 34.1609 184.672C36.0051 188.296 40.6594 195.161 42.328 196.4C43.9965 197.64 44.1721 196.4 43.4696 194.589C42.767 192.777 43.733 192.205 44.7868 192.205C45.8406 192.205 46.9823 192.968 49.3533 193.445C51.7244 193.921 58.7498 194.779 63.4041 194.589C68.0584 194.398 69.6391 195.638 71.3077 196.686C72.9762 197.735 74.3813 199.642 76.928 201.454C79.4747 203.266 82.2848 204.41 85.7975 205.363C89.3102 206.317 88.8711 204.124 88.432 203.742C87.9929 203.361 87.8173 203.17 86.5879 201.931C85.3584 200.691 84.8315 198.975 84.4803 195.638C84.129 192.3 87.1148 190.107 88.6077 188.963C90.1006 187.819 91.9447 186.293 93.7011 184.672C95.4574 183.051 95.8965 181.049 95.9843 180.191C96.0721 179.333 96.4234 177.998 97.2138 176.472C98.0041 174.947 100.726 170.274 101.605 169.13C102.483 167.986 104.239 164.458 104.766 163.123C105.293 161.788 105.556 160.549 105.644 158.928C105.732 157.307 106.171 150.251 106.259 141.097C106.347 131.944 104.064 127.462 103.273 126.032C102.483 124.602 100.287 121.837 97.2138 120.597C94.1402 119.358 90.6275 120.883 88.6077 121.837C86.5879 122.79 84.129 124.03 81.6701 125.46C79.2112 126.89 76.7523 129.56 74.2935 131.658C71.8346 133.755 70.166 132.516 68.3219 132.325C66.4777 132.134 62.0868 131.562 59.8036 131.658C57.5203 131.753 52.2513 132.421 48.9143 133.851C45.5772 135.281 43.3818 137.283 40.7472 139Z" fill="#917D74"/>
<path d="M111.264 142.432V144.434V154.16C111.264 156.258 113.109 162.074 113.635 163.981C114.162 165.888 118.114 176.567 119.08 178.665C120.046 180.763 126.632 188.486 127.774 190.107C128.916 191.728 129.003 194.017 129.003 194.589V198.117C129.003 200.405 128.477 201.072 127.598 202.503C126.72 203.933 128.038 203.838 128.74 203.933C129.443 204.028 130.848 203.552 131.55 203.265C132.253 202.979 133.57 202.407 133.833 201.454C135.502 197.068 139.366 196.877 140.595 196.877C141.825 196.877 142.527 196.4 143.054 196.114C143.581 195.828 146.479 194.303 148.06 193.73C149.641 193.158 152.626 193.444 154.91 193.444C157.193 193.444 162.901 193.73 163.428 193.444C163.955 193.158 163.779 192.205 163.779 191.633C163.867 190.298 163.691 189.535 163.252 188.868C162.813 188.2 162.023 188.105 160.354 187.723C158.686 187.342 158.51 187.819 156.578 187.723C154.646 187.628 154.558 187.342 153.592 186.198C152.626 185.054 152.099 180.954 150.782 178.951C149.728 177.349 146.947 175.614 145.689 174.946C138.546 170.624 123.998 161.693 122.944 160.549C121.627 159.118 119.607 156.163 117.675 153.207C115.743 150.251 115.655 145.483 115.48 143.767C115.304 142.051 114.777 141.86 113.284 141.574C111.791 141.288 111.264 141.955 111.264 142.432Z" fill="#593E35"/>
<path d="M84.1289 160.072C83.9182 161.674 82.8117 162.647 82.2848 162.933C73.1225 163.886 54.4116 165.831 52.866 165.984C50.934 166.174 47.7726 167.891 47.4213 169.035C47.07 170.179 47.2457 171.895 47.4213 172.849C47.5969 173.802 49.002 176.091 50.2315 177.044C51.4609 177.998 51.1096 179.81 51.2853 180.572C51.4609 181.335 52.2513 181.717 53.3929 182.575C54.5345 183.433 57.8716 185.244 61.2086 186.77C64.5457 188.296 65.5995 189.44 64.897 189.917C64.1944 190.393 63.3162 190.107 61.7355 190.012C60.1548 189.917 57.169 190.107 56.203 190.393C55.2371 190.679 54.8858 191.156 54.3589 191.728C53.832 192.3 52.866 193.445 53.3929 193.635C53.9198 193.826 55.5883 194.684 62.2624 194.112C68.9366 193.54 70.4294 196.019 70.7807 196.21C71.132 196.4 76.3132 200.787 78.5086 202.407C80.7041 204.028 84.7437 205.459 87.8173 205.745C90.2762 205.974 89.4273 204.505 88.6954 203.742C88.3735 203.456 87.6065 202.789 87.1147 202.407C86.5 201.931 85.3584 200.5 84.568 198.689C83.7777 196.877 84.3046 194.875 84.7437 193.921C85.7975 190.775 87.5538 189.249 91.1543 186.77C95.0183 185.149 95.5452 180.858 96.2477 178.379C96.9503 175.9 99.8482 170.275 100.639 169.512C101.429 168.749 104.503 163.409 105.029 161.312C105.451 159.633 105.088 152.412 104.854 149.011C104.795 148.948 104.503 148.84 103.8 148.916C102.922 149.011 101.956 149.965 100.99 150.823C100.024 151.681 99.4092 153.302 99.0579 154.446C98.7066 155.591 97.6528 157.784 96.7746 159.119C95.8965 160.453 94.667 160.072 93.1741 160.072C91.6812 160.072 92.1203 158.546 92.4716 157.116C92.8229 155.686 92.5594 153.588 92.4716 152.539C92.3838 151.491 91.33 151.205 89.398 150.823C87.466 150.442 87.7295 151.586 87.7295 152.158C87.7295 152.73 88.1685 154.351 87.7295 155.305C87.2904 156.258 86.2366 156.544 85.0071 157.116C83.7777 157.688 84.3924 158.07 84.1289 160.072Z" fill="#593E35"/>
<path d="M101.166 129.178C102.149 129.865 102.512 131.244 102.571 131.848C102.981 133.151 103.87 136.12 104.151 137.569C104.503 139.38 104.942 146.055 104.854 147.867C104.766 149.678 104.239 149.106 102.571 149.488C100.902 149.869 100.287 151.776 100.024 152.729C99.7605 153.683 98.8824 156.353 97.7407 158.069C96.5991 159.785 93.8768 163.504 91.9448 165.316C90.0128 167.127 76.7524 174.755 72.625 177.044C68.4976 179.332 64.9849 182.574 64.1067 184.1C63.2286 185.625 63.7555 187.532 64.9849 188.486C66.2143 189.439 65.1605 190.107 64.8093 190.107C64.458 190.107 63.492 190.011 61.6478 190.107C59.8037 190.202 57.3448 190.011 56.1154 190.297C54.8859 190.583 54.9737 191.537 54.0077 192.3C53.0417 193.063 51.461 192.586 49.6169 191.918C47.7727 191.251 45.0504 191.156 43.7331 191.537C42.4159 191.918 41.8011 194.683 40.3961 193.539C38.991 192.395 38.7275 190.202 38.2884 188.295C37.8494 186.388 38.9032 185.721 39.7813 185.625C40.6595 185.53 41.0108 185.721 44.0844 186.197C47.158 186.674 45.9285 184.672 45.6651 184.1C45.4016 183.528 44.26 181.716 43.3818 180.381C42.5037 179.046 41.7133 178.474 40.2204 177.044C38.7275 175.613 37.059 172.181 36.7955 169.606C36.5321 167.032 36.9712 164.839 37.059 162.646C37.1468 160.453 37.5859 157.402 38.4641 153.588C39.3422 149.774 41.8011 151.871 42.2402 152.443C42.6793 153.016 43.6453 154.827 44.26 156.353C44.8747 157.878 44.5235 161.311 45.6651 161.788C46.8067 162.264 47.0702 162.551 48.4752 162.932C49.8803 163.313 53.7443 164.458 57.6961 163.504C61.6478 162.551 66.6534 159.881 68.6732 159.118C70.693 158.355 75.1717 155.495 78.5088 153.874C81.8458 152.253 83.69 150.632 85.7098 148.439C87.7296 146.246 89.3981 144.529 90.4519 141.764C91.5057 138.999 92.823 140.239 93.2621 140.811C93.7011 141.383 94.0524 144.243 94.0524 145.864C94.0524 147.485 93.789 151.776 93.8768 154.541C93.9646 157.306 94.6671 155.209 94.9306 154.827C95.194 154.446 95.5453 153.588 96.8626 151.776C98.1798 149.964 98.7946 147.39 98.8824 145.864C98.9702 144.339 98.2676 139.19 98.1798 136.806C98.092 134.422 98.3555 131.848 98.5311 130.704C98.7067 129.559 99.9362 128.32 101.166 129.178Z" fill="#72564B"/>
<path d="M121.012 160.466C119.115 161.364 118.348 162.88 118.202 163.526C117.148 165.769 118.466 166.585 119.958 166.585C121.451 166.585 121.012 167.299 121.188 167.707C121.364 168.115 121.364 168.829 121.715 169.747C122.066 170.665 123.383 172.5 125.403 174.438C127.423 176.376 131.814 178.824 133.921 179.639C136.029 180.455 140.244 180.251 142.352 180.149C144.459 180.047 149.992 179.13 153.68 177.906C157.369 176.682 160.179 174.336 161.847 172.5C163.516 170.665 163.955 168.217 165.536 166.279C167.116 164.342 169.136 164.852 170.19 164.852C173 163.383 171.361 162.336 170.19 161.996C169.722 161.928 168.574 161.629 167.731 160.976C166.888 160.323 167.087 158.052 167.292 156.999C166.882 156.897 165.764 156.672 164.57 156.591C163.077 156.489 162.813 155.979 154.91 156.183C147.006 156.387 140.859 157.203 135.766 157.814C130.672 158.426 123.383 159.344 121.012 160.466Z" fill="#0F0B0C"/>
<path d="M125.93 161.18L123.559 162.098C123.208 162.2 122.382 162.547 121.89 163.118C121.276 163.832 121.627 164.546 121.89 165.668C122.154 166.789 123.91 169.747 124.788 171.277C125.667 172.807 128.301 175.56 130.497 176.682C132.692 177.804 135.941 179.028 139.805 179.538C143.669 180.048 146.04 179.436 149.553 178.62C153.066 177.804 154.91 175.56 158.51 172.501C162.111 169.441 162.374 165.26 163.428 161.588C164.482 157.917 162.725 158.631 161.759 158.427C160.793 158.223 154.734 158.121 152.451 158.121C150.694 158.121 150.548 159.446 150.694 160.364C150.724 161.112 150.73 163.077 150.519 164.954C149.728 166.993 146.479 169.951 144.635 170.971C142.791 171.991 141.825 171.889 137.961 171.277C130.497 169.237 129.091 164.546 128.301 162.608C127.669 161.058 126.457 161.01 125.93 161.18Z" fill="#95CAD0"/>
<path d="M129.443 167.299L124.701 169.339C124.466 169.543 124.033 169.665 124.174 170.155C124.349 170.767 124.732 171.342 125.93 172.806C127.599 174.846 129.091 176.274 133.658 178.11C137.912 179.82 142.176 179.843 146.04 179.537C149.904 179.232 153.329 176.988 155.085 175.662C156.842 174.336 159.74 171.277 160.179 170.563C160.618 169.849 160.881 169.339 160.881 168.319C160.881 167.299 160.706 166.993 160.179 166.177C159.652 165.361 158.159 164.342 156.403 163.73C154.646 163.118 153.592 163.22 152.802 163.73C152.012 164.24 151.66 164.75 150.695 165.565C149.729 166.381 148.323 168.013 147.709 168.625C147.094 169.237 145.777 170.359 144.284 171.175C142.823 171.973 141.21 171.685 139.19 171.481C137.171 171.277 132.78 169.033 131.375 167.707C130.251 166.646 129.618 166.993 129.443 167.299Z" fill="#A8E2E3"/>
<path d="M137.873 163.424C134.712 163.669 132.107 165.09 131.199 165.77C130.145 166.429 130.321 166.586 130.497 167.096C130.672 167.606 132.868 169.339 133.482 170.053C134.097 170.767 136.995 172.093 138.664 172.501C140.332 172.909 141.737 172.603 143.581 172.093C145.425 171.583 146.391 170.257 147.27 169.339C147.972 168.605 148.382 167.538 148.499 167.096C147.884 166.11 146.602 164.077 146.391 163.832C146.128 163.526 144.986 163.016 143.581 163.016C142.176 163.016 141.825 163.118 137.873 163.424Z" fill="#292426"/>
<ellipse rx="2.55324" ry="1.32329" transform="matrix(0.990065 -0.140609 0.104722 0.994502 147.653 173.972)" fill="#F2FFFF"/>
<path d="M154.646 170.767C154.502 171.076 152.451 171.073 149.719 169.285C147.396 167.83 145.519 166.177 146.04 165.056C146.703 163.628 148.563 165.317 150.886 166.771C153.209 168.225 155.118 169.751 154.646 170.767Z" fill="#F0FFFF"/>
<path d="M162.638 176.682C162.638 177.132 153.065 184.943 142.791 185.351C132.165 184.841 125.052 178.458 125.052 178.008C125.052 177.557 132.253 183.923 142.791 183.923C155.349 183.311 162.638 176.231 162.638 176.682Z" fill="#2B1812"/>
<path d="M156.051 184.305C156.051 184.569 149.1 187.865 143.146 188.104C136.989 187.805 133.482 185.309 133.482 185.044C133.482 184.78 137.04 187.186 143.146 187.186C150.423 186.827 156.051 184.04 156.051 184.305Z" fill="#2B1812"/>
<path d="M95.4598 160.695C97.3381 161.64 98.0976 163.237 98.2425 163.917C99.286 166.279 97.9816 167.138 96.5033 167.138C95.025 167.138 95.4598 167.89 95.2859 168.32C95.112 168.749 95.112 169.501 94.7641 170.467C94.4163 171.434 93.1119 173.367 91.1118 175.407C89.1118 177.447 84.7638 180.024 82.6768 180.883C80.5897 181.742 76.4157 181.528 74.3286 181.42C72.2416 181.313 66.7632 180.346 63.1109 179.058C59.4586 177.769 56.6758 175.299 55.0236 173.367C53.3714 171.434 52.9366 168.856 51.3713 166.816C49.806 164.776 47.806 165.313 46.7625 165.313C43.9798 163.766 45.603 162.664 46.7625 162.306C47.2262 162.234 48.3625 161.92 49.1973 161.232C50.0321 160.545 49.835 158.154 49.6321 157.044C50.0379 156.937 51.1452 156.701 52.3279 156.615C53.8062 156.507 54.0671 155.97 61.8934 156.185C69.7198 156.4 75.8069 157.259 80.8506 157.903C85.8943 158.548 93.1119 159.514 95.4598 160.695Z" fill="#0F0B0C"/>
<path d="M90.5914 161.487L92.9398 162.446C93.2877 162.553 94.1053 162.916 94.5923 163.513C95.2012 164.26 94.8533 165.006 94.5923 166.179C94.3314 167.353 92.5919 170.446 91.7221 172.046C90.8523 173.645 88.243 176.525 86.0686 177.698C83.8942 178.872 80.6761 180.151 76.8491 180.685C73.0221 181.218 70.6737 180.578 67.1947 179.725C63.7156 178.872 61.8891 176.525 58.3231 173.325C54.757 170.126 54.4961 165.753 53.4524 161.913C52.4086 158.074 54.1482 158.82 55.1049 158.607C56.0617 158.394 62.0631 158.287 64.3244 158.287C66.064 158.287 66.2089 159.673 66.064 160.633C66.035 161.415 66.0292 163.47 66.2379 165.433C67.0207 167.566 70.2389 170.659 72.0654 171.726C73.8919 172.792 74.8486 172.686 78.6756 172.046C86.0686 169.912 87.4603 165.006 88.243 162.98C88.8693 161.359 90.0696 161.309 90.5914 161.487Z" fill="#95CAD0"/>
<path d="M87.0543 167.86L91.7476 170.004C91.9793 170.218 92.408 170.347 92.269 170.861C92.0952 171.505 91.7159 172.11 90.5307 173.648C88.8794 175.792 87.4019 177.292 82.8825 179.222C78.6722 181.019 74.4521 181.044 70.6279 180.722C66.8038 180.401 63.4142 178.043 61.676 176.649C59.9377 175.256 57.0696 172.04 56.6351 171.29C56.2005 170.54 55.9398 170.004 55.9398 168.932C55.9398 167.86 56.1136 167.539 56.6351 166.681C57.1566 165.824 58.6341 164.752 60.3723 164.109C62.1105 163.466 63.1535 163.573 63.9357 164.109C64.7179 164.645 65.0655 165.181 66.0215 166.038C66.9776 166.896 68.3682 168.611 68.9765 169.254C69.5849 169.897 70.8886 171.076 72.3661 171.933C73.8119 172.772 75.408 172.469 77.407 172.255C79.406 172.04 83.7516 169.682 85.1422 168.289C86.2547 167.174 86.8805 167.539 87.0543 167.86Z" fill="#A8E2E3"/>
<path d="M78.7308 163.877C81.8538 164.133 84.4274 165.619 85.3238 166.33C86.3648 167.018 86.1913 167.183 86.0178 167.716C85.8443 168.249 83.6755 170.061 83.0683 170.808C82.4611 171.554 79.5983 172.94 77.9501 173.366C76.3019 173.793 74.9139 173.473 73.0921 172.94C71.2704 172.407 70.3162 171.021 69.4487 170.061C68.7547 169.294 68.3499 168.178 68.2342 167.716C68.8414 166.685 70.108 164.56 70.3162 164.304C70.5764 163.984 71.7042 163.451 73.0921 163.451C74.4801 163.451 74.8271 163.558 78.7308 163.877Z" fill="#292426"/>
<ellipse rx="2.53112" ry="1.38154" transform="matrix(-0.988963 -0.148164 -0.0993265 0.995055 69.0796 174.895)" fill="#F2FFFF"/>
<path d="M63.0342 171.491C63.1765 171.814 65.2296 169.257 68.2154 167.964C70.6584 166.906 72.2421 165.832 71.7264 164.66C71.07 163.168 69.374 164.016 67.0738 165.535C64.088 167.377 62.5671 170.429 63.0342 171.491Z" fill="#F0FFFF"/>
<path d="M90.9788 180.095C90.9788 180.674 83.3673 186.102 70.0783 186.102C56.9057 185.625 49.1777 175.43 49.1777 174.85C49.1777 174.271 56.9057 184.195 70.0783 184.862C83.3673 184.862 90.9788 179.515 90.9788 180.095Z" fill="#2B1812"/>
<path d="M82.0214 186.861C82.0214 187.194 77.8062 188.581 69.9026 188.867C62.1747 188.676 53.5686 182.06 53.5686 181.727C53.5686 181.393 62.2094 187.622 69.9026 188.006C77.6639 188.006 82.0214 186.528 82.0214 186.861Z" fill="#2B1812"/>
<path d="M112.831 172.009H100.135C98.3993 172.009 98.582 172.603 98.6734 173C98.7647 173.396 99.0387 174.09 99.2214 174.487C99.4041 174.883 100.135 176.271 100.683 176.668C101.231 177.064 102.236 176.965 103.149 176.767C104.062 176.568 104.154 177.163 104.336 177.461C104.519 177.758 105.067 178.948 106.072 179.939C107.077 180.93 107.99 180.534 108.355 180.236C108.721 179.939 108.812 179.641 109.36 178.551C109.908 177.461 111.735 176.965 112.557 176.767C113.379 176.568 114.475 175.28 115.571 173.496C116.667 171.711 114.018 172.009 112.831 172.009Z" fill="#481D16"/>
<path d="M112.634 172.008H100.428C98.7591 172.008 98.9348 172.58 99.0226 172.961C99.1104 173.343 99.3738 174.01 99.5495 174.392C99.7251 174.773 100.428 176.108 100.955 176.489C101.481 176.871 102.447 176.775 103.326 176.585C104.204 176.394 104.292 176.966 104.467 177.252C104.643 177.538 105.17 178.682 106.136 179.636C107.102 180.589 107.98 180.208 108.331 179.922C108.682 179.636 108.77 179.35 109.297 178.301C109.824 177.252 111.58 176.775 112.371 176.585C113.161 176.394 114.215 175.154 115.269 173.438C116.323 171.722 113.776 172.008 112.634 172.008Z" fill="#BD857F"/>
<path d="M102.132 176.662C101.693 176.662 100.727 176.567 100.551 176.09C99.585 175.041 102.659 174.851 103.537 174.851H112.231C113.197 174.851 113.548 175.327 113.285 175.709C113.021 176.09 112.231 176.567 111.88 176.567C111.529 176.567 111.002 176.567 110.299 176.853C109.597 177.139 108.806 178.569 108.191 179.523C107.576 180.476 106.434 179.523 106.083 179.141C105.806 178.84 105.206 177.806 104.854 177.33C104.503 176.853 103.976 176.472 103.625 176.472C103.273 176.472 102.571 176.662 102.132 176.662Z" fill="#98514D"/>
<ellipse cx="102.132" cy="179.332" rx="0.526904" ry="0.28605" fill="#2C140A"/>
<ellipse cx="111.616" cy="178.76" rx="0.526904" ry="0.28605" fill="#2C140A"/>
<ellipse cx="102.922" cy="180.476" rx="0.263452" ry="0.28605" fill="#2C140A"/>
<ellipse cx="112.407" cy="179.905" rx="0.263452" ry="0.28605" fill="#2C140A"/>
<ellipse cx="101.341" cy="180.476" rx="0.263452" ry="0.28605" fill="#2C140A"/>
<ellipse cx="110.826" cy="179.905" rx="0.263452" ry="0.28605" fill="#2C140A"/>
<path d="M41.5378 193.253C41.327 193.024 41.0402 192.331 40.9231 192.014C40.6596 191.569 40.08 190.469 39.8693 189.63C39.6058 188.581 39.7814 186.96 39.3424 184.672C38.9911 182.841 38.7862 183.782 38.7276 184.481V187.532C38.7276 188.676 38.2885 187.341 37.7616 186.102C37.2347 184.862 37.2347 184.672 37.0591 183.623C36.8835 182.574 36.9713 180.858 37.2347 177.33C37.4982 173.802 36.7957 176.09 36.5322 176.853C36.2687 177.616 36.0931 179.141 36.0931 180.19C36.0931 181.239 35.3028 181.907 34.7759 182.383C34.249 182.86 34.1611 183.623 34.1611 184.195C34.1611 184.653 35.332 186.61 35.9175 187.532C36.4737 188.517 37.867 190.831 38.9911 192.204C40.3962 193.921 42.7672 196.304 43.4698 196.972C44.1723 197.639 46.8068 199.832 47.685 200.5C48.5632 201.167 56.0276 206.316 56.9936 206.888C57.9596 207.46 64.2825 210.321 65.4241 210.988C66.5657 211.656 71.5713 212.8 75.9622 213.849C79.4749 214.688 79.2407 214.198 78.6845 213.849C77.5722 213.563 75.1367 212.952 74.2936 212.8C73.2398 212.609 67.5317 211.179 65.8632 210.512C64.1946 209.844 58.8378 206.984 57.3449 206.316C55.852 205.649 49.5292 200.5 49.0023 200.023C48.4754 199.546 45.4017 196.781 44.4358 195.828C43.4698 194.874 43.1185 192.967 43.0307 192.204C42.9429 191.442 42.9429 190.202 42.5916 189.63C42.3106 189.172 42.1818 189.693 42.1525 190.011C42.094 190.583 42.012 191.975 42.1525 192.967C42.3281 194.207 41.8012 193.539 41.5378 193.253Z" fill="#53382C"/>
<path d="M163.779 200.691C166.414 198.974 171.507 194.398 172.122 193.921L173.878 191.537L175.635 192.872C175.166 193.412 174.019 194.703 173.176 195.542C172.122 196.591 165.448 201.358 164.658 201.93C163.867 202.502 156.754 206.698 155.964 207.079C155.173 207.461 154.383 207.842 149.29 210.035C145.215 211.789 147.358 210.385 148.938 209.463C150.314 208.732 153.575 207.003 155.612 205.935C158.159 204.6 161.145 202.407 163.779 200.691Z" fill="#543A2D"/>
<path d="M48.2118 226.626C48.5631 230.135 48.8851 240.039 49.0022 244.552L58.7499 245.124C58.2523 243.472 57.2219 239.48 57.0814 236.733C56.9057 233.301 55.2372 228.438 54.5347 226.054C53.8321 223.67 50.4951 217.759 48.2118 215.28C46.3852 213.296 46.5726 215.343 46.8946 216.615C47.1873 218.49 47.8606 223.117 48.2118 226.626Z" fill="#C4B0A5"/>
<path d="M173.088 201.835H176.162C176.25 202.63 176.425 204.657 176.425 206.412C176.425 208.605 176.601 211.37 177.83 218.235C178.814 223.727 182.338 234.063 183.977 238.545L186.7 245.887L180.113 244.933C179.616 243.63 178.287 240.719 176.952 239.498C175.284 237.973 172.737 233.682 170.805 230.917C168.873 228.152 167.995 223.098 167.556 221.191C167.117 219.284 168.346 214.517 168.434 212.896C168.522 211.275 170.366 204.791 170.805 203.361C171.156 202.216 172.473 201.867 173.088 201.835Z" fill="#C4B0A5"/>
<path d="M95.7601 207.811C95.7601 207.524 100.224 215.274 106.753 215.079C116.013 215.209 121.277 204.344 121.277 204.631C121.277 204.917 116.88 215.988 106.953 215.988C98.6248 216.182 95.7601 208.097 95.7601 207.811Z" fill="#502A29"/>
<path d="M232.239 71.354C232.239 83.7444 237.74 95.3664 247.372 105.464C243.851 106.465 240.655 107.793 237.901 109.381C231.445 113.104 227.359 118.302 227.359 124.119C227.359 129.937 231.445 135.134 237.901 138.858C244.367 142.587 253.276 144.882 263.097 144.882C272.918 144.882 281.827 142.587 288.293 138.858C291.11 137.234 293.475 135.329 295.247 133.215C312.827 138.857 333.063 142.068 354.593 142.068C388.333 142.068 418.896 134.182 441.036 121.413C463.167 108.651 476.948 90.9648 476.948 71.354C476.948 51.7431 463.167 34.0574 441.036 21.2946C418.896 8.5262 388.333 0.640271 354.593 0.640271C320.854 0.640271 290.291 8.5262 268.15 21.2946C246.019 34.0574 232.239 51.7431 232.239 71.354ZM214.299 160.36C219.404 160.36 224.043 159.167 227.418 157.221C230.784 155.28 232.958 152.544 232.958 149.447C232.958 146.35 230.784 143.614 227.418 141.673C224.043 139.727 219.404 138.534 214.299 138.534C209.194 138.534 204.555 139.727 201.18 141.673C197.814 143.614 195.64 146.35 195.64 149.447C195.64 152.544 197.814 155.28 201.18 157.221C204.555 159.167 209.194 160.36 214.299 160.36Z" fill="#0C6CDE" stroke="#0C6CDE" stroke-width="0.719457"/>
<path d="M278.601 55.8348L274.963 44.5537H271.671L268.056 55.7887L265.063 44.5537H261.702L266.237 60.8767H269.553L273.282 49.2503L277.012 60.8767H280.281L284.794 44.5537H281.547L278.601 55.8348ZM285.325 57.7917C285.325 59.5644 286.798 61.199 289.216 61.199C290.896 61.199 291.978 60.4163 292.554 59.5184C292.554 59.9558 292.6 60.5774 292.669 60.8767H295.478C295.409 60.4853 295.34 59.6795 295.34 59.0809V53.5095C295.34 51.2302 294.004 49.2042 290.413 49.2042C287.374 49.2042 285.739 51.1612 285.555 52.9339L288.272 53.5095C288.364 52.5195 289.101 51.6677 290.436 51.6677C291.725 51.6677 292.347 52.3353 292.347 53.1411C292.347 53.5325 292.139 53.8548 291.495 53.9469L288.709 54.3613C286.821 54.6376 285.325 55.7657 285.325 57.7917ZM289.86 58.9198C288.87 58.9198 288.387 58.2752 288.387 57.6075C288.387 56.7326 289.008 56.2952 289.791 56.1801L292.347 55.7887V56.2952C292.347 58.2982 291.15 58.9198 289.86 58.9198ZM302.134 46.1653H299.372V47.7538C299.372 48.7668 298.819 49.5496 297.622 49.5496H297.046V52.2662H299.095V57.5384C299.095 59.7256 300.477 61.0379 302.687 61.0379C303.585 61.0379 304.137 60.8767 304.414 60.7616V58.2291C304.252 58.2752 303.838 58.3212 303.47 58.3212C302.595 58.3212 302.134 57.9989 302.134 57.0089V52.2662H304.414V49.5496H302.134V46.1653ZM311.99 52.036C313.51 52.036 314.223 53.003 314.5 53.9469L317.239 53.026C316.756 51.1151 315.006 49.2042 311.921 49.2042C308.629 49.2042 306.05 51.7137 306.05 55.2131C306.05 58.6896 308.675 61.222 312.013 61.222C315.029 61.222 316.802 59.2881 317.308 57.4003L314.615 56.5024C314.362 57.3773 313.579 58.4133 312.013 58.4133C310.448 58.4133 309.112 57.2622 309.112 55.2131C309.112 53.1641 310.425 52.036 311.99 52.036ZM322.622 54.2232C322.691 52.9799 323.451 52.013 324.74 52.013C326.214 52.013 326.835 53.003 326.835 54.2692V60.8767H329.897V53.7397C329.897 51.2533 328.562 49.2503 325.684 49.2503C324.602 49.2503 323.359 49.6186 322.622 50.4935V44.2083H319.56V60.8767H322.622V54.2232ZM343.781 58.4363C342.285 58.4363 340.903 57.3312 340.903 55.2131C340.903 53.072 342.285 51.99 343.781 51.99C345.278 51.99 346.659 53.072 346.659 55.2131C346.659 57.3542 345.278 58.4363 343.781 58.4363ZM343.781 49.2042C340.397 49.2042 337.841 51.7137 337.841 55.2131C337.841 58.6896 340.397 61.222 343.781 61.222C347.166 61.222 349.721 58.6896 349.721 55.2131C349.721 51.7137 347.166 49.2042 343.781 49.2042ZM359.506 60.8767H362.43C362.384 60.4853 362.315 59.7026 362.315 58.8277V49.5496H359.253V56.134C359.253 57.4463 358.47 58.3672 357.112 58.3672C355.685 58.3672 355.04 57.3542 355.04 56.088V49.5496H351.978V56.7096C351.978 59.173 353.544 61.176 356.283 61.176C357.48 61.176 358.793 60.7156 359.414 59.6565C359.414 60.117 359.46 60.6465 359.506 60.8767ZM369.359 46.1653H366.596V47.7538C366.596 48.7668 366.043 49.5496 364.846 49.5496H364.271V52.2662H366.32V57.5384C366.32 59.7256 367.701 61.0379 369.911 61.0379C370.809 61.0379 371.362 60.8767 371.638 60.7616V58.2291C371.477 58.2752 371.062 58.3212 370.694 58.3212C369.819 58.3212 369.359 57.9989 369.359 57.0089V52.2662H371.638V49.5496H369.359V46.1653ZM385.109 46.7408C385.615 46.7408 385.915 46.8099 386.076 46.8559V44.2774C385.823 44.1623 385.201 44.0472 384.556 44.0472C382.047 44.0472 380.435 45.7048 380.435 48.2603V49.5496H378.547V52.1742H380.435V60.8767H383.52V52.1742H386.076V49.5496H383.52V48.3064C383.52 47.0401 384.418 46.7408 385.109 46.7408ZM392.907 58.4363C391.41 58.4363 390.029 57.3312 390.029 55.2131C390.029 53.072 391.41 51.99 392.907 51.99C394.403 51.99 395.784 53.072 395.784 55.2131C395.784 57.3542 394.403 58.4363 392.907 58.4363ZM392.907 49.2042C389.522 49.2042 386.967 51.7137 386.967 55.2131C386.967 58.6896 389.522 61.222 392.907 61.222C396.291 61.222 398.846 58.6896 398.846 55.2131C398.846 51.7137 396.291 49.2042 392.907 49.2042ZM408.17 49.5035C407.94 49.4805 407.71 49.4575 407.457 49.4575C406.49 49.4575 404.924 49.7338 404.233 51.2302V49.5496H401.263V60.8767H404.326V55.6966C404.326 53.2562 405.684 52.4965 407.249 52.4965C407.526 52.4965 407.825 52.5195 408.17 52.5886V49.5035ZM419.721 46.1653H416.958V47.7538C416.958 48.7668 416.405 49.5496 415.208 49.5496H414.633V52.2662H416.682V57.5384C416.682 59.7256 418.063 61.0379 420.273 61.0379C421.171 61.0379 421.724 60.8767 422 60.7616V58.2291C421.839 58.2752 421.424 58.3212 421.056 58.3212C420.181 58.3212 419.721 57.9989 419.721 57.0089V52.2662H422V49.5496H419.721V46.1653ZM427.101 54.2232C427.17 52.9799 427.93 52.013 429.219 52.013C430.692 52.013 431.314 53.003 431.314 54.2692V60.8767H434.376V53.7397C434.376 51.2533 433.041 49.2503 430.163 49.2503C429.081 49.2503 427.838 49.6186 427.101 50.4935V44.2083H424.039V60.8767H427.101V54.2232ZM439.717 53.9239C439.786 52.8879 440.661 51.6907 442.249 51.6907C443.999 51.6907 444.736 52.7958 444.782 53.9239H439.717ZM445.081 56.8708C444.713 57.8838 443.93 58.5975 442.503 58.5975C440.983 58.5975 439.717 57.5154 439.648 56.0189H447.752C447.752 55.9729 447.798 55.5124 447.798 55.075C447.798 51.4374 445.703 49.2042 442.203 49.2042C439.302 49.2042 436.632 51.5525 436.632 55.1671C436.632 58.9889 439.372 61.222 442.48 61.222C445.265 61.222 447.061 59.5874 447.637 57.6305L445.081 56.8708ZM284.974 77.4445C284.606 75.6027 283.086 73.2083 279.126 73.2083C276.041 73.2083 273.44 75.4185 273.44 78.3194C273.44 80.7828 275.121 82.4634 277.722 82.9929L280.001 83.4534C281.268 83.7066 281.981 84.4434 281.981 85.3873C281.981 86.5384 281.037 87.3903 279.334 87.3903C277.031 87.3903 275.903 85.9398 275.765 84.3283L272.818 85.111C273.072 87.4363 274.982 90.222 279.311 90.222C283.109 90.222 285.204 87.6896 285.204 85.1801C285.204 82.8778 283.616 80.9439 280.646 80.3684L278.367 79.9309C277.17 79.7007 276.594 78.987 276.594 78.0891C276.594 77.0071 277.607 76.0171 279.15 76.0171C281.222 76.0171 281.958 77.4215 282.119 78.3194L284.974 77.4445ZM290.674 89.8767V78.5496H287.612V89.8767H290.674ZM287.243 74.8429C287.243 75.8559 288.095 76.7078 289.131 76.7078C290.19 76.7078 291.019 75.8559 291.019 74.8429C291.019 73.7839 290.19 72.9321 289.131 72.9321C288.095 72.9321 287.243 73.7839 287.243 74.8429ZM293.146 90.4983C293.469 92.6624 295.541 94.5963 298.649 94.5963C302.908 94.5963 304.588 91.7646 304.588 88.6565V78.5496H301.642V79.8849C301.25 79.1251 300.214 78.3424 298.418 78.3424C295.31 78.3424 293.146 80.8749 293.146 83.8678C293.146 87.0449 295.402 89.3702 298.418 89.3702C300.053 89.3702 301.112 88.6565 301.572 87.9198V88.7486C301.572 90.9357 300.49 91.9027 298.557 91.9027C297.106 91.9027 296.116 91.0048 295.909 89.7616L293.146 90.4983ZM298.948 86.7456C297.359 86.7456 296.231 85.6405 296.231 83.8678C296.231 82.1181 297.428 81.013 298.948 81.013C300.421 81.013 301.619 82.1181 301.619 83.8678C301.619 85.6175 300.513 86.7456 298.948 86.7456ZM310.751 83.3613C310.751 82.049 311.534 81.013 312.869 81.013C314.343 81.013 314.964 82.003 314.964 83.2692V89.8767H318.026V82.7397C318.026 80.2533 316.737 78.2503 313.928 78.2503C312.708 78.2503 311.35 78.7798 310.659 79.954V78.5496H307.689V89.8767H310.751V83.3613ZM329.884 89.8767V78.5496H326.822V89.8767H329.884ZM326.454 74.8429C326.454 75.8559 327.306 76.7078 328.342 76.7078C329.401 76.7078 330.23 75.8559 330.23 74.8429C330.23 73.7839 329.401 72.9321 328.342 72.9321C327.306 72.9321 326.454 73.7839 326.454 74.8429ZM336.224 83.3613C336.224 82.049 337.007 81.013 338.342 81.013C339.816 81.013 340.438 82.003 340.438 83.2692V89.8767H343.5V82.7397C343.5 80.2533 342.21 78.2503 339.402 78.2503C338.181 78.2503 336.823 78.7798 336.132 79.954V78.5496H333.162V89.8767H336.224V83.3613ZM355.357 94.251V88.7716C355.91 89.5314 357.061 90.153 358.627 90.153C361.827 90.153 363.968 87.6205 363.968 84.1901C363.968 80.8288 362.057 78.2963 358.742 78.2963C357.038 78.2963 355.772 79.0561 355.265 79.9309V78.5496H352.295V94.251H355.357ZM360.952 84.2131C360.952 86.2391 359.709 87.4133 358.143 87.4133C356.578 87.4133 355.311 86.2161 355.311 84.2131C355.311 82.2102 356.578 81.036 358.143 81.036C359.709 81.036 360.952 82.2102 360.952 84.2131ZM373.299 78.5035C373.069 78.4805 372.839 78.4575 372.585 78.4575C371.618 78.4575 370.053 78.7338 369.362 80.2302V78.5496H366.392V89.8767H369.454V84.6966C369.454 82.2562 370.813 81.4965 372.378 81.4965C372.654 81.4965 372.954 81.5195 373.299 81.5886V78.5035ZM380.429 87.4363C378.932 87.4363 377.551 86.3312 377.551 84.2131C377.551 82.072 378.932 80.99 380.429 80.99C381.925 80.99 383.306 82.072 383.306 84.2131C383.306 86.3542 381.925 87.4363 380.429 87.4363ZM380.429 78.2042C377.044 78.2042 374.489 80.7137 374.489 84.2131C374.489 87.6896 377.044 90.222 380.429 90.222C383.813 90.222 386.368 87.6896 386.368 84.2131C386.368 80.7137 383.813 78.2042 380.429 78.2042ZM391.847 89.8767V83.2462C391.847 82.003 392.63 81.013 393.965 81.013C395.347 81.013 395.968 81.9339 395.968 83.1541V89.8767H399.007V83.2462C399.007 82.026 399.79 81.013 401.103 81.013C402.507 81.013 403.105 81.9339 403.105 83.1541V89.8767H406.075V82.5325C406.075 79.4935 404.072 78.2273 401.977 78.2273C400.481 78.2273 399.284 78.7338 398.386 80.1151C397.81 78.8949 396.567 78.2273 395.025 78.2273C393.781 78.2273 392.331 78.8258 391.709 79.9309V78.5496H388.785V89.8767H391.847ZM412.24 94.251V88.7716C412.792 89.5314 413.943 90.153 415.509 90.153C418.709 90.153 420.85 87.6205 420.85 84.1901C420.85 80.8288 418.939 78.2963 415.624 78.2963C413.92 78.2963 412.654 79.0561 412.147 79.9309V78.5496H409.178V94.251H412.24ZM417.834 84.2131C417.834 86.2391 416.591 87.4133 415.025 87.4133C413.46 87.4133 412.193 86.2161 412.193 84.2131C412.193 82.2102 413.46 81.036 415.025 81.036C416.591 81.036 417.834 82.2102 417.834 84.2131ZM427.005 75.1653H424.242V76.7538C424.242 77.7668 423.69 78.5496 422.493 78.5496H421.917V81.2662H423.966V86.5384C423.966 88.7256 425.347 90.0379 427.558 90.0379C428.456 90.0379 429.008 89.8767 429.284 89.7616V87.2291C429.123 87.2752 428.709 87.3212 428.34 87.3212C427.466 87.3212 427.005 86.9989 427.005 86.0089V81.2662H429.284V78.5496H427.005V75.1653ZM435.87 73.5537H432.163L432.9 84.9038H435.133L435.87 73.5537ZM432.209 88.2421C432.209 89.2551 433.015 90.0609 434.005 90.0609C435.018 90.0609 435.847 89.2551 435.847 88.2421C435.847 87.2291 435.018 86.4003 434.005 86.4003C433.015 86.4003 432.209 87.2291 432.209 88.2421Z" fill="white"/>
</svg>
