<svg width="30" height="30" viewBox="0 0 30 30" fill="none" xmlns="http://www.w3.org/2000/svg">
<g clip-path="url(#clip0_168_393)">
<path d="M27.9911 28.6599L20.2567 20.888C21.9472 18.8457 22.7861 16.2307 22.5994 13.5861C22.4127 10.9416 21.2146 8.47047 19.2539 6.68595C17.2933 4.90143 14.7206 3.94056 12.0702 4.00285C9.41976 4.06514 6.89513 5.1458 5.02046 7.02046C3.1458 8.89513 2.06514 11.4198 2.00285 14.0702C1.94056 16.7206 2.90143 19.2933 4.68595 21.2539C6.47047 23.2146 8.94156 24.4127 11.5861 24.5994C14.2307 24.7861 16.8457 23.9472 18.888 22.2567L26.6224 29.9911C26.7095 30.079 26.8132 30.1487 26.9274 30.1963C27.0417 30.2439 27.1642 30.2684 27.288 30.2684C27.4117 30.2684 27.5343 30.2439 27.6485 30.1963C27.7628 30.1487 27.8665 30.079 27.9536 29.9911C28.044 29.9065 28.1167 29.8047 28.1675 29.6918C28.2184 29.5789 28.2463 29.4571 28.2498 29.3333C28.2533 29.2095 28.2322 29.0863 28.1878 28.9707C28.1434 28.8551 28.0766 28.7495 27.9911 28.6599ZM3.88798 14.3255C3.8873 12.9542 4.22087 11.6034 4.85981 10.39C5.49875 9.17664 6.4238 8.1373 7.55487 7.36195C8.68595 6.58661 9.98896 6.09863 11.3511 5.94027C12.7132 5.7819 14.0934 5.95793 15.3722 6.4531C16.651 6.94827 17.7898 7.74767 18.6901 8.78208C19.5904 9.81649 20.2249 11.0547 20.5389 12.3896C20.8528 13.7245 20.8367 15.1158 20.4919 16.443C20.147 17.7703 19.4839 18.9935 18.5599 20.0067C18.3817 20.1942 18.1942 20.3817 18.0067 20.5599C16.798 21.6607 15.2954 22.3867 13.6818 22.6495C12.0681 22.9123 10.4128 22.7006 8.91724 22.0402C7.42164 21.3798 6.15012 20.2991 5.25727 18.9295C4.36443 17.5599 3.88872 15.9604 3.88798 14.3255Z" fill="#D6D6D6"/>
</g>
<defs>
<clipPath id="clip0_168_393">
<rect width="30" height="30" fill="white"/>
</clipPath>
</defs>
</svg>
