<svg width="641" height="500" viewBox="0 0 641 500" fill="none" xmlns="http://www.w3.org/2000/svg">
<path d="M106.664 385.686C94.1585 330.728 86.2 298.307 87.4036 249.134C87.4579 246.917 89.5373 245.313 91.6994 245.809L173.453 264.552C174.776 264.856 175.809 265.892 176.107 267.217L181.414 290.761C181.713 292.086 182.745 293.122 184.069 293.426L399.348 342.783C400.632 343.077 401.972 342.633 402.825 341.63L418.882 322.771C419.736 321.769 421.076 321.325 422.359 321.619L572.781 356.106C574.905 356.593 576.094 358.847 575.067 360.769C558.742 391.291 494.477 429.435 471.61 449.447C492.854 455.194 500.093 459.724 484.5 462C458.988 465.722 459.317 460.204 471.61 449.447C394.918 428.697 135.716 392.079 109.374 388.384C107.921 388.18 106.99 387.117 106.664 385.686Z" fill="#00144E"/>
<path d="M88.257 290.655L545 394C535.037 414.579 481.205 433.425 457.44 443.755C474.198 447.749 479.219 450.588 466 451.499C439.489 453.328 442.616 450.198 457.44 443.755C386.708 426.896 106.894 389.457 106.894 389.457C96.7218 351.945 87.5453 326.056 88.257 290.655Z" fill="#7D2703"/>
<path d="M215.15 245.862L204.184 293.691C203.748 295.591 204.935 297.485 206.836 297.921L378.54 337.287C380.44 337.723 382.334 336.536 382.77 334.635L393.735 286.806C394.171 284.905 392.984 283.012 391.083 282.576L370.782 277.921C368.881 277.486 367.694 275.592 368.13 273.692L379.963 222.077C380.399 220.177 379.212 218.283 377.311 217.847L257.222 190.314C255.321 189.879 253.427 191.066 252.992 192.967L241.158 244.581C240.723 246.481 238.829 247.669 236.928 247.233L219.379 243.21C217.479 242.774 215.585 243.961 215.15 245.862Z" fill="#DDDBDB"/>
<ellipse cx="230.939" cy="278.094" rx="12.3558" ry="11.2968" transform="rotate(12.913 230.939 278.094)" fill="#004D8C"/>
<ellipse cx="273.607" cy="287.877" rx="12.3558" ry="11.2968" transform="rotate(12.913 273.607 287.877)" fill="#004D8C"/>
<ellipse cx="316.275" cy="297.659" rx="12.3558" ry="11.2968" transform="rotate(12.913 316.275 297.659)" fill="#004D8C"/>
<ellipse cx="355.502" cy="306.653" rx="12.3558" ry="11.2968" transform="rotate(12.913 355.502 306.653)" fill="#004D8C"/>
<path d="M280.722 227.386C279.179 235.852 278.775 236.49 270.272 234.941C261.768 233.391 260.487 232.446 262.029 223.98C263.572 215.514 265.353 213.715 273.857 215.265C282.361 216.814 282.264 218.92 280.722 227.386Z" fill="#004D8C"/>
<path d="M321.36 235.927C319.818 244.393 319.414 245.031 310.91 243.482C302.407 241.932 301.126 240.987 302.668 232.521C304.211 224.055 305.992 222.256 314.496 223.806C323 225.355 322.903 227.461 321.36 235.927Z" fill="#004D8C"/>
<path d="M360.36 243.927C358.818 252.393 358.414 253.031 349.91 251.481C341.407 249.932 340.125 248.987 341.668 240.52C343.211 232.054 344.992 230.256 353.496 231.805C361.999 233.355 361.903 235.46 360.36 243.927Z" fill="#004D8C"/>
<path d="M316.539 166.971L289.011 160.66L280.885 196.102L308.413 202.413L316.539 166.971Z" fill="#00144E"/>
<path d="M365.823 177.908L338.296 171.597L330.17 207.039L357.698 213.35L365.823 177.908Z" fill="#00144E"/>
<rect x="336.375" y="161.017" width="36.7145" height="9.88467" rx="3.53024" transform="rotate(12.913 336.375 161.017)" fill="#F71B2A"/>
<rect x="286.668" y="150.344" width="36.7145" height="9.88467" rx="3.53024" transform="rotate(12.913 286.668 150.344)" fill="#F71B2A"/>
<path d="M285.906 172.625L313.434 178.936L310.909 189.947L283.381 183.636L285.906 172.625Z" fill="white"/>
<path d="M335.456 183.984L362.984 190.296L360.459 201.307L332.931 194.995L335.456 183.984Z" fill="white"/>
<path d="M480.728 210.549C477.152 213.156 475.314 215.413 473.423 218.795C472.719 220.053 470.964 220.251 470.11 219.089C463.505 210.101 464.842 204.724 469.18 196.128C469.385 195.722 469.726 195.396 470.143 195.215C477.065 192.211 480.758 192.506 485.815 194.72C486.774 195.14 487.9 194.793 488.458 193.908C491.006 189.859 493.086 188.127 496.686 186.169C496.892 186.056 497.12 185.982 497.353 185.951C502.34 185.28 505.407 185.558 510.21 190.195C510.956 190.914 512.123 191.001 512.95 190.378C520.574 184.632 523.793 184.751 528.764 185.942C528.919 185.98 529.083 185.999 529.243 186.001C534.791 186.069 537.603 188.747 541.309 197.773C541.707 198.742 542.773 199.257 543.779 198.968C548.944 197.486 552.002 197.362 554.999 202.5C557.514 206.349 558.274 209.046 558.819 213.431C558.933 214.349 559.652 215.079 560.566 215.221C569.556 216.611 572.678 219.411 574.814 226.377C574.938 226.78 574.923 227.213 574.78 227.61L570.657 239.062C570.554 239.35 570.386 239.611 570.163 239.822C567.26 242.567 565.062 243.826 561.31 244.306C560.099 244.461 559.113 243.406 559.213 242.189C559.743 235.741 559.31 232.137 555.36 229.254C555.126 229.083 554.85 228.973 554.564 228.93C548.778 228.052 545.54 229.575 540.16 234.842C540.055 234.945 539.959 235.062 539.879 235.187L522.09 262.859C522.03 262.952 521.977 263.053 521.933 263.155C508.887 293.632 504.139 310.304 497.476 338.481C497.215 339.581 496.095 340.255 495.004 339.96L480.436 336.023C479.367 335.734 478.739 334.625 479.029 333.557C486.769 305.109 490.567 288.22 493.999 256.999C495.088 243.733 495.127 235.979 494.028 221.868C494.01 221.627 493.946 221.384 493.841 221.166C490.614 214.419 487.91 211.978 482.408 210.269C481.836 210.091 481.211 210.197 480.728 210.549Z" fill="#F38C42" stroke="#F38C42" stroke-linejoin="round"/>
<path d="M448.605 239.569C449.55 235.936 451.752 233.415 454.153 231.117C455.484 229.844 457.689 230.927 457.412 232.748C456.748 237.095 456.003 240.226 457.265 243.481C457.617 244.39 457.452 245.457 456.703 246.081L455.568 247.027C455.201 247.333 454.736 247.503 454.26 247.477C451.472 247.322 449.929 246.321 448.596 240.436C448.532 240.152 448.531 239.851 448.605 239.569Z" fill="#F38C42"/>
<path d="M540.096 167.007C539.494 164.92 539.968 164.41 540.818 164.185C542.599 163.715 545.573 165.388 547.376 165.76C547.632 165.813 547.957 165.725 548.637 165.888C549.889 166.188 550.123 167.787 549.26 168.741L542.032 176.727C541.892 176.881 541.728 177.02 541.541 177.111C539.404 178.161 544.547 172.6 540.522 167.77C540.336 167.546 540.176 167.288 540.096 167.007Z" fill="#F38C42"/>
<path d="M569.099 203.9C569.507 203.382 571.777 202.226 572.335 198.647C572.35 198.55 572.462 198.252 572.502 198.162C572.988 197.075 574.773 200.402 575.032 201.565C575.052 201.655 575.072 201.757 575.091 201.874C575.186 202.467 574.766 203.011 574.18 203.143L569.823 204.124C569.49 204.199 568.887 204.168 569.099 203.9Z" fill="#F38C42"/>
<path d="M504.571 175.9C504.162 175.382 501.893 174.226 501.334 170.647C501.319 170.55 501.207 170.252 501.167 170.162C500.681 169.075 498.897 172.402 498.637 173.565C498.617 173.655 498.598 173.757 498.579 173.874C498.484 174.467 498.903 175.011 499.489 175.143L503.846 176.124C504.179 176.199 504.782 176.168 504.571 175.9Z" fill="#F38C42"/>
<path d="M565.07 267.118C566.017 263.486 565.324 260.211 564.348 257.034C563.808 255.273 561.354 255.143 560.708 256.868C559.167 260.987 558.291 264.084 555.601 266.31C554.85 266.932 554.475 267.944 554.824 268.854L555.354 270.234C555.525 270.679 555.847 271.055 556.276 271.264C558.786 272.488 560.621 272.367 564.654 267.88C564.849 267.663 564.996 267.401 565.07 267.118Z" fill="#F38C42"/>
<path d="M634.5 492.5C633.558 512.636 615.955 482.449 401.075 472.399C186.195 462.35 1.55808 457.535 2.49982 437.399C355.06 313.165 364.5 364 306.501 389.399C248.501 414.798 546.661 451.851 634.5 492.5Z" fill="url(#paint0_linear_901_322)"/>
<path d="M435.747 438.878C434.652 446.95 422.007 451.898 407.505 449.931C393.002 447.964 382.133 439.825 383.228 431.753C384.323 423.681 396.968 418.733 411.47 420.7C425.973 422.668 436.842 430.806 435.747 438.878Z" fill="white"/>
<path d="M422.67 436.947C422.11 441.073 415.667 443.605 408.279 442.602C400.891 441.6 395.355 437.443 395.915 433.317C396.475 429.192 402.918 426.66 410.306 427.662C417.694 428.664 423.23 432.821 422.67 436.947Z" fill="#F96801"/>
<path d="M403.087 420.067C412.044 419.722 411.402 419.889 420.924 422.487L415.58 429.7C413.806 429.236 413.51 428.782 411.036 428.423C408.563 428.063 406.038 428.075 406.038 428.075L403.087 420.067Z" fill="#F94B00"/>
<path d="M384.458 437.005C383.26 430.945 383.56 431.401 386.76 425.42L398.045 430.129C397.48 431.247 396.817 431.374 396.461 432.977C396.106 434.58 396.315 436.276 396.315 436.276L384.458 437.005Z" fill="#F94B00"/>
<path d="M416.938 450.392C407.999 450.802 408.637 450.63 399.086 448.097L404.306 440.837C406.085 441.289 406.388 441.741 408.864 442.084C411.341 442.426 413.862 442.396 413.862 442.396L416.938 450.392Z" fill="#F94B00"/>
<path d="M433.986 433.175C435.187 439.235 434.888 438.779 431.692 444.762L420.404 440.055C420.969 438.938 421.631 438.81 421.986 437.207C422.34 435.603 422.13 433.908 422.13 433.908L433.986 433.175Z" fill="#F94B00"/>
<path d="M337.761 73C332.449 74.6734 330.758 76.3047 331.217 81.1147C324.967 78.8461 322.542 79.9601 320 85.9834C320.742 92.6482 322.39 94.0045 326.543 94.0981C326.308 98.8058 326.543 98.9669 331.217 100.59C335.891 102.213 339.215 98.5792 340.565 97.344C341.41 100.682 343.369 100.59 346.174 100.59C348.978 100.59 348.859 100.126 349.913 97.344C354.105 98.432 355.564 97.8307 357.391 95.721C358.412 92.625 358.034 91.269 355.522 89.2293C358.307 87.8212 358.449 85.8188 357.391 81.1147C353.371 77.9541 350.908 78.0309 346.174 81.1147C345.35 75.7492 343.713 73.7994 337.761 73Z" fill="#95959B" stroke="#B7B7B9" stroke-linejoin="round"/>
<path d="M380.25 1C370.604 3.92852 367.534 6.78327 368.368 15.2006C357.019 11.2306 352.615 13.1802 348 23.721C349.346 35.3843 352.339 37.7578 359.882 37.9217C359.454 46.1602 359.882 46.4421 368.368 49.2822C376.855 52.1223 382.89 45.7636 385.342 43.6019C386.876 49.4433 390.434 49.2822 395.526 49.2822C400.618 49.2822 400.401 48.4699 402.316 43.6019C409.927 45.506 412.577 44.4537 415.894 40.7618C417.748 35.3437 417.063 32.9708 412.5 29.4013C417.557 26.9371 417.816 23.433 415.894 15.2006C408.594 9.66959 404.123 9.80414 395.526 15.2006C394.03 5.81119 391.057 2.39899 380.25 1Z" fill="#95959B" stroke="#B7B7B9" stroke-linejoin="round"/>
<path d="M468.201 346.833L471.92 347.709C472.661 347.883 473.276 348.145 473.765 348.494C474.258 348.844 474.6 349.271 474.791 349.775C474.981 350.279 475.001 350.85 474.851 351.489C474.726 352.021 474.533 352.453 474.272 352.785C474.011 353.117 473.695 353.368 473.322 353.538C472.954 353.709 472.544 353.82 472.092 353.873L471.296 354.093L468.128 353.348L468.511 351.661L470.867 352.215C471.191 352.292 471.472 352.297 471.713 352.232C471.953 352.167 472.15 352.042 472.306 351.859C472.467 351.672 472.581 351.437 472.648 351.153C472.717 350.86 472.721 350.594 472.66 350.355C472.599 350.116 472.473 349.915 472.282 349.753C472.096 349.588 471.843 349.468 471.524 349.392L469.974 349.027L468.09 357.032L465.92 356.522L468.201 346.833ZM471.284 357.784L470.121 352.967L472.412 353.499L473.629 358.231L473.606 358.331L471.284 357.784ZM474.969 357.612C475.04 357.31 475.206 357.083 475.467 356.929C475.732 356.776 476.038 356.74 476.384 356.821C476.734 356.904 476.99 357.072 477.15 357.325C477.315 357.579 477.362 357.857 477.291 358.159C477.221 358.456 477.056 358.681 476.795 358.835C476.538 358.99 476.235 359.027 475.884 358.944C475.538 358.863 475.281 358.694 475.111 358.439C474.946 358.185 474.899 357.909 474.969 357.612ZM482.862 358.241L486.792 351.209L489.208 351.777L483.607 360.684L482.03 360.313L482.862 358.241ZM482.673 350.24L483.048 358.285L482.882 360.514L481.285 360.138L480.265 349.673L482.673 350.24ZM486.521 360.331C486.592 360.029 486.758 359.801 487.018 359.647C487.284 359.494 487.59 359.459 487.936 359.54C488.286 359.623 488.542 359.79 488.702 360.043C488.867 360.298 488.914 360.576 488.843 360.877C488.773 361.174 488.607 361.4 488.346 361.554C488.09 361.709 487.786 361.745 487.436 361.663C487.09 361.581 486.832 361.413 486.663 361.158C486.498 360.904 486.451 360.628 486.521 360.331ZM497.04 353.621L498.836 354.043L499.535 361.519L503.488 355.138L505.284 355.561L499.61 364.451L498.153 364.108L497.04 353.621ZM496.002 353.376L497.831 353.807L496.481 361.067L495.891 363.575L493.721 363.065L496.002 353.376ZM504.492 355.375L506.329 355.807L504.049 365.495L501.873 364.983L502.463 362.475L504.492 355.375ZM508.909 365.073C509.131 365.125 509.334 365.129 509.518 365.083C509.702 365.037 509.856 364.949 509.98 364.82C510.11 364.686 510.2 364.511 510.252 364.293L512.208 364.754C512.085 365.277 511.841 365.707 511.476 366.042C511.116 366.379 510.683 366.607 510.178 366.727C509.673 366.842 509.137 366.833 508.569 366.699C508.01 366.568 507.543 366.362 507.169 366.082C506.796 365.798 506.509 365.456 506.308 365.058C506.106 364.659 505.987 364.224 505.948 363.751C505.915 363.275 505.959 362.78 506.08 362.265L506.121 362.092C506.241 361.582 506.422 361.121 506.664 360.71C506.91 360.3 507.212 359.961 507.57 359.695C507.928 359.428 508.334 359.252 508.79 359.167C509.25 359.079 509.76 359.1 510.319 359.232C510.909 359.371 511.404 359.607 511.803 359.939C512.207 360.273 512.487 360.683 512.644 361.17C512.802 361.652 512.811 362.19 512.672 362.784L510.715 362.324C510.769 362.093 510.776 361.877 510.734 361.675C510.698 361.47 510.609 361.295 510.465 361.148C510.327 360.999 510.136 360.895 509.892 360.838C509.639 360.778 509.418 360.785 509.227 360.857C509.043 360.926 508.886 361.046 508.757 361.217C508.627 361.388 508.519 361.592 508.43 361.828C508.343 362.06 508.267 362.312 508.203 362.582L508.163 362.755C508.098 363.031 508.052 363.296 508.024 363.552C507.998 363.803 508.005 364.032 508.046 364.238C508.09 364.445 508.18 364.621 508.315 364.765C508.449 364.909 508.648 365.012 508.909 365.073ZM518.378 366.171C518.416 366.007 518.426 365.855 518.408 365.714C518.39 365.57 518.33 365.427 518.228 365.286C518.125 365.145 517.969 364.991 517.76 364.825C517.552 364.654 517.272 364.464 516.918 364.254C516.517 364.01 516.14 363.753 515.787 363.482C515.439 363.209 515.141 362.916 514.891 362.604C514.641 362.293 514.465 361.956 514.363 361.595C514.265 361.235 514.266 360.842 514.366 360.416C514.464 360.004 514.642 359.652 514.902 359.363C515.163 359.073 515.484 358.849 515.868 358.691C516.253 358.529 516.681 358.438 517.154 358.418C517.628 358.394 518.131 358.444 518.664 358.569C519.373 358.736 519.967 359.009 520.444 359.389C520.927 359.764 521.266 360.214 521.461 360.738C521.657 361.257 521.685 361.813 521.546 362.408L519.39 361.9C519.451 361.639 519.45 361.395 519.386 361.169C519.328 360.94 519.201 360.742 519.006 360.574C518.816 360.408 518.557 360.286 518.229 360.209C517.909 360.133 517.629 360.119 517.389 360.165C517.154 360.209 516.962 360.299 516.813 360.437C516.667 360.576 516.572 360.743 516.526 360.939C516.489 361.094 516.496 361.245 516.546 361.393C516.601 361.537 516.693 361.682 516.822 361.83C516.956 361.974 517.128 362.122 517.335 362.274C517.543 362.426 517.785 362.581 518.061 362.74C518.542 363.026 518.958 363.316 519.31 363.609C519.667 363.904 519.953 364.21 520.169 364.528C520.384 364.845 520.523 365.18 520.586 365.532C520.652 365.884 520.638 366.263 520.543 366.666C520.442 367.097 520.268 367.458 520.021 367.751C519.779 368.046 519.472 368.273 519.102 368.434C518.737 368.592 518.323 368.679 517.86 368.697C517.397 368.714 516.898 368.66 516.361 368.533C515.873 368.418 515.406 368.243 514.961 368.007C514.516 367.767 514.132 367.47 513.808 367.118C513.488 366.766 513.26 366.362 513.124 365.904C512.994 365.442 512.995 364.932 513.126 364.373L515.296 364.884C515.227 365.176 515.21 365.435 515.247 365.659C515.284 365.878 515.366 366.068 515.492 366.229C515.622 366.391 515.794 366.525 516.008 366.631C516.222 366.738 516.468 366.824 516.748 366.89C517.071 366.966 517.344 366.983 517.564 366.941C517.79 366.896 517.971 366.805 518.106 366.669C518.241 366.532 518.332 366.366 518.378 366.171ZM523.704 368.007L526.338 363.142L527.649 363.451L526.658 365.662L524.098 370.214L523.026 369.962L523.704 368.007ZM524.282 362.658L524.008 368.058L523.632 370.104L522.354 369.803L522.279 362.187L524.282 362.658ZM527.731 368.829L529.864 363.972L531.867 364.444L528.416 371.23L527.139 370.929L527.731 368.829ZM527.808 363.488L528.015 368.994L527.744 371.072L526.659 370.817L526.41 365.61L526.531 363.188L527.808 363.488ZM534.948 365.169L533.254 372.369L531.171 371.878L532.865 364.679L534.948 365.169ZM533.177 362.786C533.248 362.484 533.413 362.263 533.671 362.122C533.93 361.977 534.232 361.945 534.578 362.027C534.924 362.108 535.181 362.272 535.348 362.517C535.52 362.759 535.571 363.031 535.5 363.332C535.43 363.629 535.263 363.85 535 363.994C534.742 364.135 534.44 364.164 534.094 364.083C533.748 364.001 533.491 363.84 533.323 363.599C533.156 363.354 533.108 363.083 533.177 362.786ZM537.339 373.33L535.25 372.838L537.088 365.026C537.219 364.472 537.437 364.032 537.743 363.706C538.054 363.381 538.434 363.168 538.884 363.068C539.333 362.968 539.833 362.983 540.383 363.112C540.574 363.157 540.748 363.212 540.906 363.277C541.069 363.339 541.226 363.409 541.377 363.486L541.012 365.037C540.933 364.995 540.85 364.959 540.763 364.929C540.677 364.899 540.571 364.87 540.447 364.841C540.225 364.788 540.026 364.779 539.85 364.812C539.679 364.842 539.534 364.918 539.417 365.041C539.304 365.159 539.225 365.319 539.178 365.518L537.339 373.33ZM540.458 366.465L540.115 367.923L535.55 366.848L535.893 365.391L540.458 366.465ZM545.016 367.538L544.673 368.995L540.401 367.99L540.744 366.533L545.016 367.538ZM542.142 364.98L544.225 365.47L542.641 372.197C542.594 372.397 542.583 372.556 542.606 372.674C542.63 372.791 542.692 372.886 542.793 372.956C542.894 373.022 543.031 373.076 543.204 373.116C543.329 373.146 543.436 373.166 543.527 373.178C543.618 373.19 543.702 373.198 543.781 373.203L543.427 374.707C543.236 374.723 543.037 374.723 542.83 374.707C542.622 374.695 542.401 374.662 542.166 374.606C541.718 374.501 541.347 374.336 541.053 374.113C540.763 373.89 540.569 373.601 540.47 373.245C540.373 372.885 540.384 372.45 540.504 371.94L542.142 364.98ZM546.685 374.652L550.066 368.727L552.302 369.253L547.459 376.85C547.355 377.017 547.224 377.192 547.069 377.376C546.918 377.56 546.731 377.727 546.509 377.876C546.291 378.026 546.032 378.129 545.734 378.185C545.435 378.241 545.088 378.223 544.693 378.13C544.494 378.083 544.341 378.035 544.235 377.987C544.133 377.944 543.998 377.88 543.831 377.793L544.18 376.281C544.238 376.295 544.289 376.307 544.333 376.317C544.381 376.333 544.429 376.347 544.478 376.359C544.726 376.417 544.932 376.437 545.096 376.42C545.263 376.403 545.402 376.351 545.511 376.265C545.624 376.183 545.726 376.069 545.817 375.922L546.685 374.652ZM547.551 368.135L547.836 373.609L547.57 375.871L546.149 375.614L545.315 367.609L547.551 368.135Z" fill="white"/>
<defs>
<linearGradient id="paint0_linear_901_322" x1="367.486" y1="397.196" x2="373.704" y2="502.068" gradientUnits="userSpaceOnUse">
<stop offset="0.532278" stop-color="#F96800"/>
<stop offset="1" stop-color="#C4C4C4" stop-opacity="0"/>
</linearGradient>
</defs>
</svg>
